<svg width="26" height="17" viewBox="0 0 26 17" fill="none" xmlns="http://www.w3.org/2000/svg">
<path d="M25.3489 7.86631C22.9952 3.27386 18.3355 0.166656 13 0.166656C7.66447 0.166656 3.00345 3.27603 0.651018 7.86674C0.551731 8.06314 0.5 8.28014 0.5 8.50021C0.5 8.72028 0.551731 8.93727 0.651018 9.13367C3.00475 13.7261 7.66447 16.8333 13 16.8333C18.3355 16.8333 22.9965 13.7239 25.3489 9.13324C25.4482 8.93683 25.5 8.71984 25.5 8.49977C25.5 8.2797 25.4482 8.06271 25.3489 7.86631ZM13 14.75C11.7638 14.75 10.5555 14.3834 9.52766 13.6967C8.49985 13.0099 7.69878 12.0338 7.22573 10.8918C6.75268 9.74972 6.62891 8.49306 6.87007 7.28068C7.11123 6.06829 7.70648 4.95465 8.58056 4.08057C9.45464 3.20649 10.5683 2.61124 11.7807 2.37008C12.993 2.12892 14.2497 2.2527 15.3917 2.72574C16.5338 3.19879 17.5099 3.99987 18.1967 5.02768C18.8834 6.05548 19.25 7.26386 19.25 8.49999C19.2504 9.32086 19.089 10.1338 18.775 10.8922C18.4611 11.6507 18.0007 12.3399 17.4203 12.9203C16.8398 13.5007 16.1507 13.9611 15.3922 14.2751C14.6338 14.589 13.8208 14.7504 13 14.75ZM13 4.33332C12.6281 4.33852 12.2586 4.39385 11.9015 4.49782C12.1958 4.89785 12.3371 5.39013 12.2996 5.88538C12.2621 6.38063 12.0484 6.84606 11.6972 7.19726C11.346 7.54845 10.8806 7.76216 10.3854 7.79963C9.89012 7.83709 9.39784 7.69583 8.99781 7.40147C8.77001 8.2407 8.81113 9.13023 9.11538 9.94487C9.41962 10.7595 9.97167 11.4582 10.6938 11.9427C11.416 12.4271 12.2719 12.6729 13.141 12.6455C14.0102 12.618 14.8489 12.3187 15.539 11.7896C16.2291 11.2606 16.736 10.5284 16.9882 9.69616C17.2404 8.86395 17.2253 7.97359 16.945 7.15041C16.6647 6.32723 16.1333 5.61268 15.4256 5.10733C14.7179 4.60198 13.8696 4.33128 13 4.33332Z" fill="#6E5841"/>
</svg>
