<svg width="65" height="65" viewBox="0 0 65 65" fill="none" xmlns="http://www.w3.org/2000/svg">
<path d="M54.8438 4.0625H10.1562C8.54009 4.0625 6.99012 4.70452 5.84732 5.84732C4.70452 6.99012 4.0625 8.54009 4.0625 10.1562L4.0625 54.8438C4.0625 56.4599 4.70452 58.0099 5.84732 59.1527C6.99012 60.2955 8.54009 60.9375 10.1562 60.9375H27.5806V41.6013H19.5825V32.5H27.5806V25.5633C27.5806 17.6731 32.2778 13.3148 39.4723 13.3148C42.9178 13.3148 46.5207 13.9293 46.5207 13.9293V21.6734H42.5509C38.6395 21.6734 37.4194 24.1008 37.4194 26.5903V32.5H46.1513L44.7548 41.6013H37.4194V60.9375H54.8438C56.4599 60.9375 58.0099 60.2955 59.1527 59.1527C60.2955 58.0099 60.9375 56.4599 60.9375 54.8438V10.1562C60.9375 8.54009 60.2955 6.99012 59.1527 5.84732C58.0099 4.70452 56.4599 4.0625 54.8438 4.0625Z" fill="#6E5841"/>
</svg>
