<svg width="37" height="33" viewBox="0 0 37 33" fill="none" xmlns="http://www.w3.org/2000/svg">
<path d="M36.5 28.875C36.5 30.9609 35.0925 32.5 33.5312 32.5H3.46875C1.90753 32.5 0.5 30.9609 0.5 28.875V11.3984C1.69794 12.5015 3.23804 13.8744 6.8877 17.0439L11.5098 21.0459C12.2319 21.6727 13.3078 22.745 14.4795 23.6172C15.6519 24.4899 17.0454 25.2646 18.4951 25.2578V25.2588C18.4964 25.2588 18.4977 25.2578 18.499 25.2578C18.5003 25.2578 18.5016 25.2588 18.5029 25.2588L18.502 25.2578C19.9614 25.2699 21.3729 24.4803 22.5518 23.6006C23.7298 22.7214 24.8067 21.6453 25.498 21.0459L25.4971 21.0449C32.6618 14.8553 34.888 12.8747 36.5 11.3896V28.875ZM3.46875 0.5H33.5312C35.0925 0.5 36.5 2.03912 36.5 4.125V5.75781C36.5 6.20807 36.3472 6.61816 36.1055 6.90137L35.9961 7.01465L35.9941 7.0166C34.0652 8.81569 33.2693 9.58965 26.6777 15.2979L23.4775 18.0635C22.8249 18.627 21.9774 19.475 21.0156 20.2354C20.5456 20.6069 20.0763 20.9326 19.6348 21.1621C19.1866 21.395 18.8084 21.5061 18.5098 21.5H18.4902C18.1916 21.5061 17.8134 21.395 17.3652 21.1621C16.9237 20.9326 16.4544 20.6069 15.9844 20.2354C15.263 19.6651 14.6057 19.0459 14.0469 18.5342L13.5225 18.0635C6.33195 11.8581 4.12664 9.8986 2.54297 8.44238L1.00488 7.01562C0.696714 6.72328 0.5 6.26753 0.5 5.75781V4.125C0.5 2.10415 1.82116 0.596925 3.32324 0.504883L3.46875 0.5Z" fill="#6E5841" stroke="black"/>
</svg>
