<svg width="37" height="38" viewBox="0 0 37 38" fill="none" xmlns="http://www.w3.org/2000/svg">
<path d="M33.0357 0H3.96429C1.77484 0 0 1.82281 0 4.07143V33.9286C0 36.1772 1.77484 38 3.96429 38H33.0357C35.2252 38 37 36.1772 37 33.9286V4.07143C37 1.82281 35.2252 0 33.0357 0ZM7.76339 32.5714C7.18254 32.5714 6.68502 32.1581 6.55627 31.5852L5.31759 26.0718C5.25227 25.7811 5.2885 25.4761 5.41995 25.21C5.55139 24.944 5.76969 24.7338 6.0367 24.6163L11.8178 22.0717C12.0647 21.963 12.3394 21.9397 12.6004 22.0054C12.8613 22.071 13.0945 22.222 13.2646 22.4355L15.8246 25.649C19.8669 23.7012 23.117 20.3173 24.9739 16.2525L21.8449 13.6233C21.637 13.4485 21.49 13.2091 21.4261 12.9411C21.3622 12.6731 21.3849 12.391 21.4907 12.1374L23.9684 6.20002C24.0828 5.9258 24.2875 5.7016 24.5465 5.5666C24.8056 5.4316 25.1026 5.3944 25.3856 5.46148L30.7539 6.73363C31.0269 6.79827 31.2705 6.95603 31.4449 7.18116C31.6193 7.4063 31.7143 7.68551 31.7143 7.97321C31.7143 21.5694 20.9822 32.5714 7.76339 32.5714Z" fill="#6E5841"/>
</svg>
